<svg width="25" height="25" viewBox="0 0 25 25" fill="none" xmlns="http://www.w3.org/2000/svg">
<path d="M20.2739 6.16822C19.1856 4.6656 17.6951 3.50089 15.9739 2.80822C14.4565 2.19058 12.8106 1.95521 11.1809 2.12281C9.55118 2.29041 7.98763 2.85583 6.62769 3.76937C5.26775 4.68291 4.15309 5.91658 3.38171 7.3619C2.61033 8.80722 2.20587 10.4199 2.20388 12.0582C2.20388 12.2482 2.20388 12.4382 2.20388 12.6182C2.29114 14.1823 2.74687 15.7037 3.53388 17.0582C4.81914 19.3141 6.93135 20.9816 9.42388 21.7082C10.3298 21.9534 11.2655 22.0711 12.2039 22.0582C12.835 22.0611 13.4648 22.0008 14.0839 21.8782C16.1265 21.4828 17.995 20.4602 19.4289 18.9527C20.8629 17.4452 21.791 15.5281 22.0839 13.4682C22.159 13.0019 22.1991 12.5306 22.2039 12.0582C22.2125 9.93813 21.5355 7.87205 20.2739 6.16822ZM18.2739 6.93822L17.2039 9.79822L15.5839 10.2382L13.2039 8.54822V6.69822L15.6939 4.88822C16.7043 5.37546 17.5979 6.07465 18.3139 6.93822H18.2739ZM14.2039 11.7282L13.4239 14.0582H10.9739L10.2039 11.7282L12.2039 10.2982L14.2039 11.7282ZM12.2039 4.05822C12.5755 4.0624 12.9464 4.09247 13.3139 4.14822L12.2039 4.94822L11.0939 4.14822C11.4613 4.09247 11.8322 4.0624 12.2039 4.05822ZM5.08388 8.42822L5.48388 9.74822L4.35388 10.5382C4.49583 9.8038 4.74163 9.09334 5.08388 8.42822ZM6.45388 17.5982L7.83388 17.6482L8.20388 18.9782C7.5613 18.5988 6.97269 18.1346 6.45388 17.5982ZM8.20388 15.6582L5.05388 15.5482C4.65644 14.7677 4.39278 13.926 4.27388 13.0582L6.76388 11.3182L8.20388 11.9382L9.09388 14.6982L8.20388 15.6582ZM9.06388 10.1282L7.50388 9.42822L6.59388 6.42822C7.20725 5.80177 7.92025 5.28138 8.70388 4.88822L11.2039 6.69822V8.54822L9.06388 10.1282ZM13.2039 19.9882C12.3265 20.0923 11.4381 20.0517 10.5739 19.8682L9.74388 16.9482L10.5739 16.0582H13.6439L14.3139 17.0582L13.2039 19.9882ZM15.6139 19.2882L16.0739 18.0582L17.4339 18.1282C16.8744 18.5994 16.2517 18.9899 15.5839 19.2882H15.6139ZM19.0739 16.1682L15.9639 16.0582L15.2539 14.9582L16.1439 12.1982L17.6539 11.7882L20.0139 13.7882C19.8237 14.6295 19.4959 15.4336 19.0439 16.1682H19.0739ZM19.1239 10.3382L19.6039 9.05822C19.8854 9.73792 20.0641 10.4558 20.1339 11.1882L19.1239 10.3382Z" fill="#4F4F4F"/>
</svg>
