<svg width="24" height="25" viewBox="0 0 24 25" fill="none" xmlns="http://www.w3.org/2000/svg">
<path d="M20.04 14.5282C20.75 15.1382 20.25 16.1682 19.24 16.1682H11.85V4.60822H19.24C20.25 4.60822 20.75 5.64821 20.04 6.24821L17.03 8.81821C16.02 9.67821 16.02 11.0882 17.03 11.9482L20.04 14.5282Z" stroke="#4F4F4F" stroke-width="2" stroke-linecap="round" stroke-linejoin="round"/>
<path d="M3.62999 11.0282V21.3082" stroke="#4F4F4F" stroke-width="2" stroke-linecap="round" stroke-linejoin="round"/>
<path d="M10.82 14.1182H4.64999C4.07999 14.1182 3.62 13.6582 3.62 13.0882V3.83823C3.62 3.26823 4.07999 2.80823 4.64999 2.80823H10.82C11.39 2.80823 11.85 3.26823 11.85 3.83823V13.0882C11.85 13.6582 11.39 14.1182 10.82 14.1182Z" stroke="#4F4F4F" stroke-width="2" stroke-linecap="round" stroke-linejoin="round"/>
</svg>
