<svg width="25" height="25" viewBox="0 0 25 25" fill="none" xmlns="http://www.w3.org/2000/svg">
<path d="M18.6019 7.05823H18.2519C18.4802 6.591 18.5998 6.07822 18.6019 5.55823C18.605 4.86156 18.3994 4.17992 18.0118 3.60107C17.6241 3.02221 17.072 2.57262 16.4267 2.31017C15.7813 2.04773 15.0722 1.98444 14.3906 2.12845C13.7089 2.27246 13.086 2.61718 12.6019 3.11823C12.1179 2.61718 11.495 2.27246 10.8133 2.12845C10.1317 1.98444 9.42256 2.04773 8.7772 2.31017C8.13184 2.57262 7.5798 3.02221 7.19213 3.60107C6.80447 4.17992 6.59892 4.86156 6.60194 5.55823C6.60408 6.07822 6.72373 6.591 6.95194 7.05823H6.60194C5.80629 7.05823 5.04323 7.37431 4.48062 7.93691C3.91801 8.49952 3.60194 9.26258 3.60194 10.0582V12.0582C3.60194 12.3235 3.7073 12.5778 3.89484 12.7653C4.08237 12.9529 4.33673 13.0582 4.60194 13.0582H5.60194V19.0582C5.60194 19.8539 5.91801 20.6169 6.48062 21.1796C7.04323 21.7422 7.80629 22.0582 8.60194 22.0582H16.6019C17.3976 22.0582 18.1607 21.7422 18.7233 21.1796C19.2859 20.6169 19.6019 19.8539 19.6019 19.0582V13.0582H20.6019C20.8672 13.0582 21.1215 12.9529 21.3091 12.7653C21.4966 12.5778 21.6019 12.3235 21.6019 12.0582V10.0582C21.6019 9.26258 21.2859 8.49952 20.7233 7.93691C20.1607 7.37431 19.3976 7.05823 18.6019 7.05823ZM11.6019 20.0582H8.60194C8.33673 20.0582 8.08237 19.9529 7.89484 19.7653C7.7073 19.5778 7.60194 19.3235 7.60194 19.0582V13.0582H11.6019V20.0582ZM11.6019 11.0582H5.60194V10.0582C5.60194 9.79302 5.7073 9.53866 5.89484 9.35113C6.08237 9.16359 6.33673 9.05823 6.60194 9.05823H11.6019V11.0582ZM11.6019 7.05823H10.1019C9.80527 7.05823 9.51526 6.97026 9.26859 6.80544C9.02192 6.64062 8.82966 6.40635 8.71612 6.13226C8.60259 5.85817 8.57289 5.55657 8.63077 5.2656C8.68864 4.97463 8.8315 4.70735 9.04128 4.49757C9.25106 4.2878 9.51834 4.14493 9.80931 4.08706C10.1003 4.02918 10.4019 4.05888 10.676 4.17242C10.9501 4.28595 11.1843 4.47821 11.3491 4.72488C11.514 4.97155 11.6019 5.26156 11.6019 5.55823V7.05823ZM13.6019 5.55823C13.6019 5.26156 13.6899 4.97155 13.8547 4.72488C14.0196 4.47821 14.2538 4.28595 14.5279 4.17242C14.802 4.05888 15.1036 4.02918 15.3946 4.08706C15.6856 4.14493 15.9528 4.2878 16.1626 4.49757C16.3724 4.70735 16.5152 4.97463 16.5731 5.2656C16.631 5.55657 16.6013 5.85817 16.4878 6.13226C16.3742 6.40635 16.182 6.64062 15.9353 6.80544C15.6886 6.97026 15.3986 7.05823 15.1019 7.05823H13.6019V5.55823ZM17.6019 19.0582C17.6019 19.3235 17.4966 19.5778 17.3091 19.7653C17.1215 19.9529 16.8672 20.0582 16.6019 20.0582H13.6019V13.0582H17.6019V19.0582ZM19.6019 11.0582H13.6019V9.05823H18.6019C18.8672 9.05823 19.1215 9.16359 19.3091 9.35113C19.4966 9.53866 19.6019 9.79302 19.6019 10.0582V11.0582Z" fill="#4F4F4F"/>
</svg>
