<svg width="25" height="25" viewBox="0 0 25 25" fill="none" xmlns="http://www.w3.org/2000/svg">
<path d="M15.5761 21.3082H10.0161V15.3582C10.0161 14.8082 10.4661 14.3582 11.0161 14.3582H14.5761C15.1261 14.3582 15.5761 14.8082 15.5761 15.3582V21.3082V21.3082Z" stroke="white" stroke-width="2" stroke-linecap="round" stroke-linejoin="round"/>
<path d="M22.0461 11.4482V18.1582C22.0461 19.8982 20.7061 21.3082 19.0461 21.3082H6.54611C4.88611 21.3082 3.54611 19.8982 3.54611 18.1582V11.4482C3.54611 10.5082 3.93611 9.62822 4.62611 9.02822L10.8761 3.53822C11.9861 2.55822 13.6061 2.55822 14.7161 3.53822L20.9661 9.02822C21.6561 9.62822 22.0461 10.5082 22.0461 11.4482Z" stroke="white" stroke-width="2" stroke-linecap="round" stroke-linejoin="round"/>
</svg>
